solid anycubic_kobra_3_max_buildplate
  facet normal 0 0 -1
    outer loop
      vertex 0 0 0
      vertex 420 420 0
      vertex 420 0 0
    endloop
  endfacet
  facet normal 0 0 -1
    outer loop
      vertex 0 0 0
      vertex 0 420 0
      vertex 420 420 0
    endloop
  endfacet
  facet normal 0 0 1
    outer loop
      vertex 0 0 1
      vertex 420 0 1
      vertex 420 420 1
    endloop
  endfacet
  facet normal 0 0 1
    outer loop
      vertex 0 0 1
      vertex 420 420 1
      vertex 0 420 1
    endloop
  endfacet
  facet normal 0 -1 0
    outer loop
      vertex 0 0 0
      vertex 420 0 0
      vertex 420 0 1
    endloop
  endfacet
  facet normal 0 -1 0
    outer loop
      vertex 0 0 0
      vertex 420 0 1
      vertex 0 0 1
    endloop
  endfacet
  facet normal 1 0 0
    outer loop
      vertex 420 0 0
      vertex 420 420 0
      vertex 420 420 1
    endloop
  endfacet
  facet normal 1 0 0
    outer loop
      vertex 420 0 0
      vertex 420 420 1
      vertex 420 0 1
    endloop
  endfacet
  facet normal 0 1 0
    outer loop
      vertex 420 420 0
      vertex 0 420 0
      vertex 0 420 1
    endloop
  endfacet
  facet normal 0 1 0
    outer loop
      vertex 420 420 0
      vertex 0 420 1
      vertex 420 420 1
    endloop
  endfacet
  facet normal -1 0 0
    outer loop
      vertex 0 420 0
      vertex 0 0 0
      vertex 0 0 1
    endloop
  endfacet
  facet normal -1 0 0
    outer loop
      vertex 0 420 0
      vertex 0 0 1
      vertex 0 420 1
    endloop
  endfacet
endsolid anycubic_kobra_3_max_buildplate
